<svg width="14" height="14" viewBox="0 0 14 14" fill="none" xmlns="http://www.w3.org/2000/svg">
<path fill-rule="evenodd" clip-rule="evenodd" d="M6.9 13.8C10.7108 13.8 13.8 10.7108 13.8 6.9C13.8 3.08924 10.7108 0 6.9 0C3.08923 0 0 3.08924 0 6.9C0 10.7108 3.08923 13.8 6.9 13.8ZM10.0974 5.78488C10.4342 5.44805 10.4342 4.90195 10.0974 4.56512C9.76055 4.22829 9.21444 4.22829 8.87762 4.56512L6.0375 7.40524L4.92238 6.29012C4.58555 5.95329 4.03945 5.95329 3.70262 6.29012C3.36579 6.62695 3.36579 7.17305 3.70262 7.50988L5.42762 9.23488C5.76445 9.57171 6.31055 9.57171 6.64738 9.23488L10.0974 5.78488Z" fill="#10B981"/>
</svg>
